<?xml version="1.0" encoding="utf-8"?>
<!-- Generator: Adobe Illustrator 23.0.0, SVG Export Plug-In . SVG Version: 6.00 Build 0)  -->
<svg version="1.0" id="Layer_1" xmlns="http://www.w3.org/2000/svg" xmlns:xlink="http://www.w3.org/1999/xlink" x="0px" y="0px"
	 viewBox="0 0 1280 1280" style="enable-background:new 0 0 1280 1280;" xml:space="preserve">
<style type="text/css">
	.st0{fill:#448EF6;}
	.st1{fill:#FDB44B;}
	.st2{fill:#005792;}
</style>
<g>
	<path class="st0" d="M1027.5,583.8v298.7c0,6.3-4.9,11.4-10.8,11.4h-81.3c-6,0-10.8-5.1-10.8-11.4v-36.8c0-10.1-11.6-15.2-18.4-8.1
		l-51.8,53.1c-2,2.1-4.7,3.2-7.6,3.2H725.3c-3.9,0-5.8-5-3-7.8l202.2-207.4l95.7-98.1C1022.9,577.8,1027.5,579.8,1027.5,583.8z"/>
	<path class="st1" d="M1024.2,499.8L647.6,886.1c-4.2,4.3-10.9,4.3-15.2,0L255.8,499.8c-2.1-2.1-3.3-5.1-3.3-8.1V383.5
		c0-10.1,11.6-15.2,18.4-8.1l361.5,370.8c4.2,4.3,10.9,4.3,15.2,0l361.5-370.8c6.9-7,18.4-1.9,18.4,8.1v108.1
		C1027.5,494.7,1026.3,497.6,1024.2,499.8z"/>
	<path class="st2" d="M554.7,893.9H433.3c-2.8,0-5.6-1.2-7.6-3.2L374,837.5c-6.9-7-18.4-1.9-18.4,8.1v36.8c0,6.3-4.9,11.4-10.8,11.4
		h-81.3c-6,0-10.8-5.1-10.8-11.4V583.8c0-4,4.6-6.1,7.4-3.3l95.7,98.1l202.2,207.4C560.5,888.9,558.6,893.9,554.7,893.9z"/>
</g>
</svg>
