<svg width="50" height="50" viewBox="0 0 50 50" fill="none" xmlns="http://www.w3.org/2000/svg">
<path d="M22.6225 7.31745C23.3725 5.01495 26.63 5.01495 27.3775 7.31745L30.0525 15.5474C30.2159 16.0487 30.5336 16.4854 30.9602 16.7952C31.3867 17.105 31.9003 17.2721 32.4275 17.2724H41.0825C43.505 17.2724 44.51 20.3724 42.5525 21.7974L35.5525 26.8824C35.1251 27.1925 34.8068 27.63 34.6433 28.1321C34.4799 28.6342 34.4796 29.1752 34.6425 29.6774L37.3175 37.9074C38.0675 40.2099 35.43 42.1274 33.4675 40.7024L26.4675 35.6174C26.0405 35.3074 25.5264 35.1405 24.9987 35.1405C24.4711 35.1405 23.957 35.3074 23.53 35.6174L16.53 40.7024C14.57 42.1274 11.935 40.2099 12.6825 37.9074L15.3575 29.6774C15.5204 29.1752 15.5201 28.6342 15.3567 28.1321C15.1932 27.63 14.8749 27.1925 14.4475 26.8824L7.45 21.7999C5.4925 20.3749 6.5 17.2749 8.92 17.2749H17.5725C18.1001 17.2751 18.6143 17.1083 19.0413 16.7984C19.4684 16.4886 19.7864 16.0516 19.95 15.5499L22.625 7.31995L22.6225 7.31745Z" fill="#FF971D"/>
</svg>
